# xmcd
#
# Track frame offsets:
#	187
#	22345
#	47012
#	66922
#	87182
#	113882
#	140642
#	163320
#	189625
#	216225
#	242562
#	269455
#
# Disc length: 4013 seconds
#
# Revision: 1
# Processed by: cddbd v1.5.1PL0 Copyright (c) Steve Scherf et al.
# Submitted via: CDex 1.50Beta5
#
DISCID=b90fab0c
DTITLE=SHIORI AOYAMA - LUNA SEA  PIANO SOLO INSTRUMENTS
DYEAR=1900
DGENRE=曲
TTITLE0=WITH LOVE
TTITLE1=IN SILENCE
TTITLE2=FOREVER and EVER
TTITLE3=HURT
TTITLE4=END OF SORROW
TTITLE5=TWICE
TTITLE6=Dejavu
TTITLE7=image
TTITLE8=JESUS
TTITLE9=RAIN
TTITLE10=LOVELESS
TTITLE11=IN SILENCE (ANOTHER VERSION)
EXTD=
EXTT0=
EXTT1=
EXTT2=
EXTT3=
EXTT4=
EXTT5=
EXTT6=
EXTT7=
EXTT8=
EXTT9=
EXTT10=
EXTT11=
PLAYORDER=
